<svg xmlns="http://www.w3.org/2000/svg" width="24" height="24" viewBox="0 0 24 24">
    <path d="M 12 4 A 3.5 3.5 0 1 0 12 11 A 3.5 3.5 0 1 0 12 4 z M 4.5 7 A 2.5 2.5 0 0 0 4.5 12 A 2.5 2.5 0 0 0 4.5 7 z M 19.5 7 A 2.5 2.5 0 0 0 19.5 12 A 2.5 2.5 0 0 0 19.5 7 z M 12 13 C 9.664 13 5 14.173 5 16.5 L 5 20 L 19 20 L 19 16.5 C 19 14.173 14.336 13 12 13 z M 3.8984375 14.052734 C 2.3174375 14.296734 0 15.389078 0 16.705078 L 0 20 L 3 20 L 3 16.5 C 3 15.539 3.3454375 14.732734 3.8984375 14.052734 z M 20.101562 14.052734 C 20.654563 14.732734 21 15.539 21 16.5 L 21 20 L 24 20 L 24 16.705078 C 24 15.389078 21.682562 14.296734 20.101562 14.052734 z"></path>
</svg>
